<svg version="1.1" id="svg1" inkscape:version="1.3 (0e150ed, 2023-07-21)" sodipodi:docname="drawing.svg" xmlns:inkscape="http://www.inkscape.org/namespaces/inkscape" xmlns:sodipodi="http://sodipodi.sourceforge.net/DTD/sodipodi-0.dtd" xmlns="http://www.w3.org/2000/svg" xmlns:svg="http://www.w3.org/2000/svg" viewBox="1.68 73.4 203.15 69.6">
  <sodipodi:namedview id="namedview1" pagecolor="#505050" bordercolor="#ffffff" borderopacity="1" inkscape:showpageshadow="0" inkscape:pageopacity="0" inkscape:pagecheckerboard="1" inkscape:deskcolor="#505050" inkscape:document-units="mm" inkscape:zoom="0.70911897" inkscape:cx="396.97147" inkscape:cy="693.8187" inkscape:window-width="1920" inkscape:window-height="1000" inkscape:window-x="0" inkscape:window-y="0" inkscape:window-maximized="1" inkscape:current-layer="layer1"/>
  <defs id="defs1">
    <rect x="70.349076" y="174.34931" width="663.84187" height="573.18673" id="rect3"/>
    <rect x="172.45814" y="370.95919" width="153.12933" height="90.427694" id="rect2"/>
  </defs>
  <g inkscape:label="Layer 1" inkscape:groupmode="layer" id="layer1">
    <path id="text1" style="font-size:3.175px;fill:none;stroke-width:0.262661" d="m 54.665853,90.105687 v -2.25058 h -0.261635 v 1.25791 c 0,0.11557 0.0035,0.22778 0.0097,0.33704 0.0063,0.10927 0.01119,0.20092 0.01539,0.27446 h -0.01231 l -1.204037,-1.86941 h -0.330892 v 2.25058 h 0.264739 v -1.27021 c 0,-0.0672 -9.77e-4,-0.14075 -0.0031,-0.2206 -0.0042,-0.0798 -0.0076,-0.15335 -0.0097,-0.2206 l -0.0092,-0.15133 h 0.01231 l 1.200959,1.86274 z m -3.009836,-0.52942 c 0.149191,0 0.280522,-0.0358 0.393992,-0.10723 0.111368,-0.0714 0.198597,-0.17337 0.261636,-0.30575 0.06093,-0.13238 0.09131,-0.29116 0.09131,-0.47608 0,-0.18701 -0.03382,-0.34579 -0.101063,-0.47607 -0.06934,-0.12818 -0.164898,-0.22471 -0.286774,-0.28985 -0.123976,-0.0651 -0.265588,-0.0975 -0.425285,-0.0975 -0.115572,0 -0.215547,0.009 -0.299599,0.0282 -0.08405,0.0168 -0.169326,0.0443 -0.255479,0.0821 v 0.24266 c 0.08825,-0.0378 0.174505,-0.0672 0.258557,-0.0882 0.08195,-0.0189 0.17653,-0.0287 0.283696,-0.0287 0.168102,0 0.299434,0.0495 0.393992,0.14826 0.09245,0.10087 0.14098,0.2469 0.145182,0.43811 h -1.15684 v 0.16724 c 0,0.1534 0.02842,0.28668 0.08516,0.40015 0.05463,0.11557 0.134511,0.20476 0.239576,0.2678 0.102964,0.063 0.226943,0.0949 0.371933,0.0949 z m -0.829026,-0.0287 -0.463249,-1.68935 H 50.04824 l -0.302676,0.94907 c -0.02942,0.0883 -0.05342,0.17302 -0.07233,0.25497 -0.01891,0.0841 -0.03263,0.14923 -0.04104,0.19546 h -0.01231 c -0.0105,-0.0462 -0.0252,-0.11141 -0.04412,-0.19546 -0.02102,-0.082 -0.04553,-0.16574 -0.07285,-0.25189 l -0.28985,-0.95215 h -0.324737 l -0.469405,1.68935 h 0.283695 l 0.236498,-0.90137 c 0.02521,-0.0966 0.04922,-0.19123 0.07233,-0.28369 0.02102,-0.0924 0.03473,-0.16499 0.04104,-0.21752 h 0.01231 c 0.0084,0.0609 0.0246,0.13347 0.04771,0.21752 0.02102,0.0841 0.04307,0.16197 0.06618,0.23342 l 0.289851,0.95164 h 0.302677 l 0.299086,-0.95164 c 0.01471,-0.0462 0.02942,-0.0987 0.04412,-0.1575 0.01471,-0.0567 0.02843,-0.11162 0.04104,-0.16416 0.0105,-0.0525 0.01981,-0.0966 0.02821,-0.13236 h 0.01283 c 0.0084,0.0609 0.0231,0.13789 0.04412,0.23034 0.02102,0.0924 0.04306,0.1836 0.06618,0.27395 l 0.23342,0.90137 z m 0.832104,-0.19854 c -0.140787,0 -0.243693,-0.0451 -0.308832,-0.13544 -0.06514,-0.0883 -0.09897,-0.2039 -0.101064,-0.34679 h 0.86032 c -0.01471,0.15129 -0.05979,0.2689 -0.135435,0.35295 -0.07775,0.0862 -0.182607,0.12928 -0.314989,0.12928 z"/>
    <text xml:space="preserve" transform="scale(0.26458333)" id="text2" style="font-style:normal;font-variant:normal;font-weight:normal;font-stretch:normal;font-family:Futura;-inkscape-font-specification:Futura;white-space:pre;shape-inside:url(#rect2);display:inline;fill:none"/>
    <text xml:space="preserve" transform="scale(0.26458333)" id="text3" style="font-style:normal;font-variant:normal;font-weight:normal;font-stretch:normal;font-size:192px;font-family:Futura;-inkscape-font-specification:Futura;white-space:pre;shape-inside:url(#rect3);display:inline;fill:none"><tspan x="70.349609" y="356.21628" id="tspan1">New Game</tspan></text>
    <text xml:space="preserve" style="font-style:normal;font-variant:normal;font-weight:normal;font-stretch:normal;font-size:22.5778px;font-family:Futura;-inkscape-font-specification:Futura;fill:none;stroke-width:0.264583" x="102.24562" y="135.0363" id="text4"><tspan sodipodi:role="line" id="tspan3" style="font-size:22.5778px;stroke-width:0.264583" x="102.24562" y="135.0363">New Game</tspan><tspan sodipodi:role="line" style="font-size:22.5778px;stroke-width:0.264583" x="102.24562" y="163.25853" id="tspan4"/></text>
    <text xml:space="preserve" style="font-style:normal;font-variant:normal;font-weight:normal;font-stretch:normal;font-size:22.4138px;line-height:1.25;font-family:Futura;-inkscape-font-specification:Futura;fill:none;stroke-width:0.262661" x="-90.34774" y="-89.995117" id="text5" transform="scale(-1)"><tspan sodipodi:role="line" id="tspan5" style="stroke-width:0.262661" x="-90.34774" y="-89.995117">New Game</tspan></text>
    <text xml:space="preserve" style="font-style:normal;font-variant:normal;font-weight:normal;font-stretch:normal;font-size:58.5533px;line-height:1.25;font-family:Futura;-inkscape-font-specification:Futura;fill:#f9f9f9;stroke-width:0.68617" x="2.6119664" y="137.60335" id="text6" transform="scale(1.0599379,0.94345151)"><tspan sodipodi:role="line" id="tspan6" style="stroke-width:0.68617" x="2.6119664" y="137.60335">New game</tspan></text>
  </g>
</svg>